HIERARCHY
ROOT Hips
{
	OFFSET 0.000000 0.000000 0.000000
	CHANNELS 6 Xposition Yposition Zposition Xrotation Yrotation Zrotation
	JOINT LeftUpLeg_virtual
	{
		OFFSET 0.000000 0.000000 0.000000
		CHANNELS 3 Xrotation Yrotation Zrotation
		JOINT LeftUpLeg
		{
			OFFSET 11.394100 -6.187798 -0.413800
			CHANNELS 3 Xrotation Yrotation Zrotation
			JOINT LeftLeg
			{
				OFFSET 0.430247 -32.302673 3.732800
				CHANNELS 3 Xrotation Yrotation Zrotation
				JOINT LeftFoot
				{
					OFFSET -0.430247 -48.264931 -6.423300
					CHANNELS 3 Xrotation Yrotation Zrotation
					JOINT LeftToeBase
					{
						OFFSET 4.230900 -16.068199 23.438400
						CHANNELS 3 Xrotation Yrotation Zrotation
						JOINT LeftToe_End
						{
							OFFSET 4.510700 0.695400 19.974600
							CHANNELS 3 Xrotation Yrotation Zrotation
							End Site
							{
								OFFSET 0 0 0
							}
						}
					}
				}
			}
		}
	}
	JOINT RightUpLeg_virtual
	{
		OFFSET 0.000000 0.000000 0.000000
		CHANNELS 3 Xrotation Yrotation Zrotation
		JOINT RightUpLeg
		{
			OFFSET -11.333700 -6.187798 -0.413800
			CHANNELS 3 Xrotation Yrotation Zrotation
			JOINT RightLeg
			{
				OFFSET -0.430392 -32.302628 3.733000
				CHANNELS 3 Xrotation Yrotation Zrotation
				JOINT RightFoot
				{
					OFFSET 0.430392 -48.264973 -6.423500
					CHANNELS 3 Xrotation Yrotation Zrotation
					JOINT RightToeBase
					{
						OFFSET -4.230900 -16.068199 23.438400
						CHANNELS 3 Xrotation Yrotation Zrotation
						JOINT RightToe_End
						{
							OFFSET -4.510700 0.695400 19.974600
							CHANNELS 3 Xrotation Yrotation Zrotation
							End Site
							{
								OFFSET 0 0 0
							}
						}
					}
				}
			}
		}
	}
	JOINT Spine_virtual
	{
		OFFSET 0.000000 0.000000 0.000000
		CHANNELS 3 Xrotation Yrotation Zrotation
		JOINT Spine
		{
			OFFSET -0.002400 12.777504 0.315300
			CHANNELS 3 Xrotation Yrotation Zrotation
			JOINT Spine1
			{
				OFFSET -0.002067 5.816869 0.032633
				CHANNELS 3 Xrotation Yrotation Zrotation
				JOINT Spine1_split
				{
					OFFSET -0.002067 5.816869 0.032633
					CHANNELS 3 Xrotation Yrotation Zrotation
					JOINT Spine2
					{
						OFFSET -0.002067 5.816869 0.032633
						CHANNELS 3 Xrotation Yrotation Zrotation
						JOINT Neck_virtual
						{
							OFFSET 0.000000 0.000000 0.000000
							CHANNELS 3 Xrotation Yrotation Zrotation
							JOINT Neck
							{
								OFFSET -0.003700 21.199493 -0.826900
								CHANNELS 3 Xrotation Yrotation Zrotation
								JOINT Head
								{
									OFFSET 0.000000 20.442200 4.834800
									CHANNELS 3 Xrotation Yrotation Zrotation
									JOINT HeadTop_End
									{
										OFFSET 0.000000 34.668396 4.968400
										CHANNELS 3 Xrotation Yrotation Zrotation
										End Site
										{
											OFFSET 0 0 0
										}
									}
								}
							}
						}
						JOINT LeftShoulder_virtual
						{
							OFFSET 0.000000 0.000000 0.000000
							CHANNELS 3 Xrotation Yrotation Zrotation
							JOINT LeftShoulder
							{
								OFFSET 3.288150 8.794197 -1.372250
								CHANNELS 3 Xrotation Yrotation Zrotation
								JOINT LeftShoulder_split
								{
									OFFSET 3.288150 8.794197 -1.372250
									CHANNELS 3 Xrotation Yrotation Zrotation
									JOINT LeftArm
									{
										OFFSET 11.953299 -2.279007 -0.146200
										CHANNELS 3 Xrotation Yrotation Zrotation
										JOINT LeftForeArm
										{
											OFFSET 18.448900 0.000000 0.000000
											CHANNELS 3 Xrotation Yrotation Zrotation
											JOINT LeftHand
											{
												OFFSET 29.527798 0.000000 0.000000
												CHANNELS 3 Xrotation Yrotation Zrotation
												End Site
												{
													OFFSET 0 0 0
												}
											}
										}
									}
								}
							}
						}
						JOINT RightShoulder_virtual
						{
							OFFSET 0.000000 0.000000 0.000000
							CHANNELS 3 Xrotation Yrotation Zrotation
							JOINT RightShoulder
							{
								OFFSET -3.249400 8.794197 -1.372250
								CHANNELS 3 Xrotation Yrotation Zrotation
								JOINT RightShoulder_split
								{
									OFFSET -3.249400 8.794197 -1.372250
									CHANNELS 3 Xrotation Yrotation Zrotation
									JOINT RightArm
									{
										OFFSET -11.953299 -2.279007 -0.146200
										CHANNELS 3 Xrotation Yrotation Zrotation
										JOINT RightForeArm
										{
											OFFSET -18.448900 0.000000 0.000000
											CHANNELS 3 Xrotation Yrotation Zrotation
											JOINT RightHand
											{
												OFFSET -29.527802 0.000000 0.000000
												CHANNELS 3 Xrotation Yrotation Zrotation
												End Site
												{
													OFFSET 0 0 0
												}
											}
										}
									}
								}
							}
						}
					}
				}
			}
		}
	}
}
MOTION
Frames: 11
Frame Time: 0.03333333
0.281555 100.221252 2.744537 0.000000 0.000000 0.000000 0.047789 -1.150672 0.908654 -7.207327 10.716612 9.590130 10.917425 -8.353760 -1.519700 -4.222639 -3.093876 -5.734477 -0.059626 0.225585 -1.081124 0.000000 0.000000 0.000000 0.941554 -0.349604 0.388485 -6.904003 -4.448073 -12.885460 13.822825 7.360230 2.308155 0.074051 -3.557689 3.238052 0.830643 -0.432943 0.186709 0.000000 0.000000 0.000000 -0.307350 -2.197714 0.410250 2.484584 0.869677 0.756753 0.831797 0.705459 0.249289 1.715602 2.637237 -0.238252 0.000000 0.000000 0.000000 1.198829 0.576467 -0.201697 -0.440297 -0.351687 -2.585252 -4.272643 -12.027814 5.650569 0.000000 0.000000 0.000000 0.852073 0.436252 0.285455 0.719417 -1.319502 -10.842599 -0.038301 0.117271 -2.837220 8.363591 -18.476778 -59.380292 2.077180 -26.224499 1.160133 0.000000 0.000000 0.000000 0.423213 0.435277 0.000329 0.638781 3.598084 14.532955 -0.966216 1.394008 0.305810 6.969170 4.620256 62.373458 -0.140414 31.052970 -0.244168 0.000000 0.000000 0.000000 
0.272083 100.332413 2.670341 0.000000 0.000000 0.000000 0.353669 -0.883644 0.935858 -7.450607 9.718740 9.242351 11.197778 -8.002772 -1.123132 -4.354827 -2.642057 -5.514272 -0.224043 0.283118 -1.350531 0.000000 0.000000 0.000000 1.029012 -0.579001 0.407333 -7.057039 -4.795459 -12.971465 13.050729 7.214476 2.178112 0.651726 -3.237146 3.509214 0.237146 -0.598048 0.425423 0.000000 0.000000 0.000000 -0.192757 -2.073712 0.298773 2.116737 0.828010 0.785062 0.855057 0.727789 0.358633 1.541934 3.026572 -0.012484 0.000000 0.000000 0.000000 1.102193 0.619869 -0.121827 -0.260933 -0.328813 -2.610127 -4.434724 -11.885558 5.386615 0.000000 0.000000 0.000000 0.860197 0.500650 0.352820 0.703873 -1.010831 -10.856591 0.956215 -0.343994 -2.461044 8.068454 -18.646044 -59.024022 2.508528 -24.354499 1.128533 0.000000 0.000000 0.000000 0.428745 0.455985 -0.019424 0.619214 3.812306 14.757419 -0.426144 1.770468 0.729741 6.937924 3.599463 62.490043 0.056204 29.971195 -0.126035 0.000000 0.000000 0.000000 
0.167757 100.479996 2.408810 0.000000 0.000000 0.000000 0.885993 -1.133914 0.962142 -8.077272 8.775967 9.022684 11.829445 -7.465346 -0.692445 -4.493007 -1.873676 -5.561120 -0.211260 0.374323 -1.517307 0.000000 0.000000 0.000000 1.329031 -0.975722 0.425049 -7.680625 -4.914413 -13.000133 12.367275 7.008546 2.031434 0.702965 -2.957972 3.672325 -0.082533 -0.627309 0.688957 0.000000 0.000000 0.000000 0.241548 -2.024629 0.162033 1.730737 0.767788 0.763158 0.908748 0.717198 0.504415 1.435266 2.420061 0.174472 0.000000 0.000000 0.000000 1.037785 0.645512 -0.009899 0.071819 -0.245948 -2.640844 -4.854956 -11.506820 5.032258 0.000000 0.000000 0.000000 0.935561 0.536200 0.420911 0.699976 -0.646753 -10.975150 1.391983 -0.719365 -1.907209 7.226977 -19.383223 -58.382640 2.672505 -23.068879 1.132845 0.000000 0.000000 0.000000 0.491892 0.482839 0.036019 0.604491 4.137359 15.032469 -0.661493 2.264403 0.615995 7.266279 3.862057 62.358234 0.172657 29.382306 0.027630 0.000000 0.000000 0.000000 
0.028229 100.510803 1.914196 0.000000 0.000000 0.000000 1.641726 -1.601351 0.964983 -9.400095 8.000912 9.013954 13.074236 -6.794701 -0.297946 -4.784564 -0.943600 -5.852238 0.012659 0.486478 -1.518142 0.000000 0.000000 0.000000 1.948863 -1.465148 0.419986 -9.051725 -4.858248 -12.964619 12.153499 6.758283 1.882715 0.163155 -2.719932 3.743747 -0.125856 -0.546512 0.870522 0.000000 0.000000 0.000000 0.961049 -2.053410 0.057159 1.410375 0.718528 0.745881 1.001752 0.722803 0.632845 1.391536 1.498957 0.199413 0.000000 0.000000 0.000000 1.009903 0.681801 0.095646 0.432255 -0.147539 -2.593804 -5.626316 -10.872598 4.556312 0.000000 0.000000 0.000000 1.028168 0.580249 0.439068 0.696751 -0.372576 -11.063288 1.337568 -0.804940 -1.425585 5.566285 -20.005646 -57.589826 2.610461 -23.726062 1.195049 0.000000 0.000000 0.000000 0.598330 0.546367 0.116899 0.605606 4.500422 15.213154 -1.275713 2.763218 0.091066 7.304367 5.062255 61.664177 0.198225 30.422540 0.202334 0.000000 0.000000 0.000000 
-0.110158 100.252281 1.136318 0.000000 0.000000 0.000000 2.670729 -2.069809 0.925006 -11.895067 7.418344 9.209165 15.246372 -6.090190 0.047105 -5.277001 -0.067340 -6.391335 0.335757 0.608800 -1.330626 0.000000 0.000000 0.000000 2.987649 -1.922015 0.376080 -11.457371 -4.754791 -12.933663 13.059370 6.565150 1.752214 -0.939237 -2.442154 3.863485 -0.255599 -0.373935 0.883494 0.000000 0.000000 0.000000 2.058710 -2.058736 -0.015322 1.196850 0.704201 0.793845 1.107396 0.776037 0.687585 1.215347 0.720360 0.181900 0.000000 0.000000 0.000000 1.029535 0.764986 0.144134 0.639430 -0.061312 -2.433746 -6.858422 -10.002046 3.985812 0.000000 0.000000 0.000000 1.090476 0.662092 0.386424 0.695640 -0.330480 -10.932068 1.238477 -0.650616 -0.939946 2.757719 -19.926452 -56.869579 2.457704 -26.935799 1.277549 0.000000 0.000000 0.000000 0.750142 0.665897 0.160586 0.611455 4.825534 15.235201 -1.566001 3.011223 -0.604915 6.304522 6.863713 60.131182 0.140564 33.915099 0.431280 0.000000 0.000000 0.000000 
-0.228228 99.478935 0.045151 0.000000 0.000000 0.000000 4.032015 -2.387911 0.840754 -15.921963 6.877880 9.559909 18.652494 -5.488095 0.310672 -5.961054 0.566542 -7.104000 0.467424 0.713376 -0.927540 0.000000 0.000000 0.000000 4.522128 -2.206397 0.310799 -15.245214 -4.660781 -12.990529 15.579137 6.450220 1.617129 -2.553423 -2.053630 4.012922 -0.598192 -0.159461 0.715540 0.000000 0.000000 0.000000 3.545484 -1.998150 -0.021910 1.138747 0.727725 0.916601 1.213515 0.901153 0.633410 0.953460 -0.031687 0.187948 0.000000 0.000000 0.000000 1.103063 0.919440 0.116708 0.566758 0.028756 -2.170735 -8.600408 -8.899142 3.329356 0.000000 0.000000 0.000000 1.108604 0.800338 0.265709 0.683626 -0.556870 -10.442283 1.233681 -0.389048 -0.525736 -1.813833 -19.117167 -56.469333 2.324478 -32.866157 1.311810 0.000000 0.000000 0.000000 0.917152 0.841565 0.126461 0.625039 5.061954 14.979156 -1.343809 3.388885 -1.242007 3.485805 8.771968 57.628000 0.034259 39.798324 0.702192 0.000000 0.000000 0.000000 
-0.360957 98.147514 -1.314629 0.000000 0.000000 0.000000 5.824565 -2.512194 0.767510 -21.553683 6.210227 9.969198 23.362414 -4.941070 0.503521 -6.819969 0.974253 -7.805549 0.405152 0.780040 -0.411153 0.000000 0.000000 0.000000 6.483699 -2.407355 0.265207 -20.669829 -4.660978 -13.204121 20.037439 6.392191 1.517343 -4.578916 -1.577092 4.153213 -1.050506 0.046097 0.436127 0.000000 0.000000 0.000000 5.462190 -1.905742 0.013475 1.219782 0.787419 1.084412 1.313544 1.083064 0.496237 0.643114 -0.429226 0.227851 0.000000 0.000000 0.000000 1.221464 1.115814 0.016600 0.155721 0.091793 -1.842978 -10.786263 -7.612385 2.638152 0.000000 0.000000 0.000000 1.109780 0.995332 0.110741 0.651465 -1.011903 -9.609268 1.195244 -0.218314 -0.425264 -8.136600 -17.916498 -56.342316 2.256806 -41.025740 1.290712 0.000000 0.000000 0.000000 1.061085 1.045272 0.032123 0.622815 5.251128 14.485897 -0.770569 3.750918 -1.454352 -1.706411 10.722617 54.272325 -0.085625 47.539155 1.008639 0.000000 0.000000 0.000000 
-0.459162 96.260040 -2.902317 0.000000 0.000000 0.000000 7.962892 -2.483951 0.717321 -28.559978 5.336058 10.276034 29.109996 -4.331275 0.638077 -7.801304 1.281007 -8.242794 0.341424 0.780370 0.082796 0.000000 0.000000 0.000000 8.678613 -2.472746 0.248502 -27.694947 -4.757791 -13.658065 26.286798 6.410974 1.455777 -6.795457 -1.013195 4.230434 -1.508945 0.220664 0.151072 0.000000 0.000000 0.000000 7.776596 -1.734435 0.031568 1.366959 0.864047 1.237171 1.424473 1.272615 0.325126 0.600746 -0.490689 0.170542 0.000000 0.000000 0.000000 1.373334 1.297322 -0.115383 -0.559896 0.143492 -1.495227 -13.273735 -6.367523 1.984509 0.000000 0.000000 0.000000 1.135387 1.214205 -0.035010 0.610422 -1.663432 -8.551266 0.982434 -0.302099 -0.595655 -15.997176 -16.685341 -56.428653 2.220774 -49.792431 1.195708 0.000000 0.000000 0.000000 1.191594 1.240572 -0.101116 0.593931 5.476570 13.879004 -0.100891 3.959802 -1.259810 -9.319726 12.950833 50.453313 -0.189063 55.820838 1.226273 0.000000 0.000000 0.000000 
-0.469159 93.989189 -4.585163 0.000000 0.000000 0.000000 10.328160 -2.336557 0.692146 -36.327437 4.262516 10.445633 35.306163 -3.654704 0.694197 -8.827942 1.531068 -8.300024 0.354785 0.700893 0.509460 0.000000 0.000000 0.000000 10.904902 -2.522979 0.280868 -35.870552 -4.765893 -14.353646 33.628590 6.526692 1.421417 -8.902350 -0.397035 4.277936 -1.789851 0.333219 -0.041611 0.000000 0.000000 0.000000 10.360299 -1.561486 0.006950 1.542707 0.956096 1.333317 1.590827 1.441856 0.159611 0.928247 -0.577387 0.192613 0.000000 0.000000 0.000000 1.579393 1.444694 -0.224855 -1.453468 0.205691 -1.181653 -15.791461 -5.248311 1.410545 0.000000 0.000000 0.000000 1.238739 1.417444 -0.141718 0.576716 -2.525464 -7.413178 0.879022 -0.411536 -0.761022 -24.922787 -15.606829 -56.581065 2.091703 -57.515766 1.012090 0.000000 0.000000 0.000000 1.337788 1.399999 -0.255075 0.564473 5.798465 13.294801 0.335672 4.172359 -0.912339 -18.881230 15.735216 46.925742 -0.220135 63.369402 1.278808 0.000000 0.000000 0.000000 
-0.422749 91.534882 -6.201988 0.000000 0.000000 0.000000 12.714856 -2.051254 0.682854 -44.156415 3.106320 10.504927 41.275765 -2.959095 0.648635 -9.686528 1.744660 -8.060175 0.584573 0.567081 0.797449 0.000000 0.000000 0.000000 13.049060 -2.659398 0.383020 -44.404409 -4.581650 -15.233962 41.080163 6.758163 1.379975 -10.598201 0.245241 4.393173 -1.925667 0.421342 -0.059694 0.000000 0.000000 0.000000 12.968190 -1.490121 -0.055005 1.656463 1.070225 1.371156 1.821077 1.578393 0.010680 1.243650 -0.881139 0.254489 0.000000 0.000000 0.000000 1.835810 1.551212 -0.299401 -2.406669 0.242090 -0.960335 -17.927751 -4.196755 0.975368 0.000000 0.000000 0.000000 1.436806 1.582062 -0.208850 0.570758 -3.649718 -6.363630 0.642408 -0.409163 -0.939171 -33.911872 -14.578614 -56.607768 1.857614 -63.132811 0.792873 0.000000 0.000000 0.000000 1.538308 1.515346 -0.391883 0.558376 6.345212 12.894096 0.553137 4.401090 -0.749097 -29.286338 18.820870 44.501691 -0.184361 68.921602 1.160057 0.000000 0.000000 0.000000 
-0.342358 89.116402 -7.613335 0.000000 0.000000 0.000000 14.843803 -1.636009 0.640444 -51.271877 1.950033 10.525847 46.578089 -2.386812 0.536134 -10.125822 1.871696 -7.712426 0.956397 0.398413 1.009008 0.000000 0.000000 0.000000 14.953873 -2.882632 0.528024 -52.323433 -4.154855 -16.057495 47.560274 7.057784 1.263155 -11.730894 0.843732 4.665808 -2.015707 0.513341 0.050335 0.000000 0.000000 0.000000 15.316534 -1.538721 -0.091827 1.693377 1.205678 1.350235 2.097666 1.670234 -0.120556 1.479951 -1.112007 0.310134 0.000000 0.000000 0.000000 2.132765 1.626677 -0.338344 -3.262241 0.262412 -0.849014 -19.420960 -3.258147 0.713553 0.000000 0.000000 0.000000 1.695645 1.691424 -0.248679 0.603476 -4.968199 -5.580366 0.375750 -0.415529 -0.906727 -41.969597 -13.482112 -56.437033 1.616560 -66.495430 0.666201 0.000000 0.000000 0.000000 1.785120 1.591728 -0.497292 0.597494 7.185826 12.685353 0.501546 4.716217 -0.707234 -39.241605 21.666526 43.614214 -0.000161 71.956173 0.863600 0.000000 0.000000 0.000000 
